<svg class="wf-fig" viewBox="0 0 695 516" width="695" height="516" role="img"><g transform="translate(6.0,6.0)"><rect x="107.9" y="16.0" width="467.0" height="156.0" rx="8.0" fill="none" stroke="#16636B" stroke-width="1.1" stroke-dasharray="5 4" opacity="0.75"/><rect x="0.0" y="252.0" width="682.8" height="252.0" rx="8.0" fill="none" stroke="#16636B" stroke-width="1.1" stroke-dasharray="5 4" opacity="0.75"/><path d="M172.0,298.8 L172.0,361.4" fill="none" stroke="#C3CAD2" stroke-width="1.2"/><polygon points="172.0,361.4 169.5,354.6 174.5,354.6" fill="#C3CAD2"/><path d="M299.9,282.0 Q511.4,282.0 511.4,282.0 Q511.4,282.0 511.4,321.7 L511.4,361.4" fill="none" stroke="#C3CAD2" stroke-width="1.2"/><polygon points="511.4,361.4 508.9,354.6 513.9,354.6" fill="#C3CAD2"/><rect x="115.9" y="7.0" width="38.0" height="15.0" fill="#F5F7F9"/><text x="134.9" y="18.0" text-anchor="middle" font-family="Noto Sans JP, Hiragino Kaku Gothic ProN, sans-serif" font-size="10.0" fill="#16636B">変更前</text><rect x="8.0" y="243.0" width="38.0" height="15.0" fill="#F5F7F9"/><text x="27.0" y="254.0" text-anchor="middle" font-family="Noto Sans JP, Hiragino Kaku Gothic ProN, sans-serif" font-size="10.0" fill="#16636B">変更後</text><g class="wf-node" transform="translate(121.9,30.0)"><g class="svg-box" role="plain"><rect x="0" y="0" width="439.0" height="32.0" rx="5.0" fill="#F5F7F9" stroke="#C3CAD2" stroke-width="1.2"/><text x="219.5" y="20.3" text-anchor="middle" font-family="Noto Sans JP, Hiragino Kaku Gothic ProN, sans-serif" font-size="12.0" font-weight="400" fill="#171B23">tech-lead-advisor（役割の名前。14件中12件が AI の総合か事例）</text></g></g><g class="wf-node" transform="translate(238.9,126.0)"><g class="svg-box" role="plain"><rect x="0" y="0" width="205.0" height="32.0" rx="5.0" fill="#F5F7F9" stroke="#C3CAD2" stroke-width="1.2"/><text x="102.5" y="20.3" text-anchor="middle" font-family="Noto Sans JP, Hiragino Kaku Gothic ProN, sans-serif" font-size="12.0" font-weight="400" fill="#171B23">ddd-advisor（DDD の文献）</text></g></g><g class="wf-node" transform="translate(44.9,266.0)"><g class="svg-box" role="focus"><rect x="0" y="0" width="254.2" height="32.0" rx="5.0" fill="#E2EFF0" stroke="#16636B" stroke-width="1.6"/><text x="127.1" y="20.3" text-anchor="middle" font-family="Noto Sans JP, Hiragino Kaku Gothic ProN, sans-serif" font-size="12.0" font-weight="600" fill="#16636B">software-architecture-advisor</text></g></g><g class="wf-node" transform="translate(14.0,362.0)"><g class="svg-box" role="plain"><rect x="0" y="0" width="316.0" height="32.0" rx="5.0" fill="#F5F7F9" stroke="#C3CAD2" stroke-width="1.2"/><text x="158.0" y="20.3" text-anchor="middle" font-family="Noto Sans JP, Hiragino Kaku Gothic ProN, sans-serif" font-size="12.0" font-weight="400" fill="#171B23">設計の原則（SOLID ・ DRY ・ YAGNI）── 書籍</text></g></g><g class="wf-node" transform="translate(354.0,362.0)"><g class="svg-box" role="plain"><rect x="0" y="0" width="314.8" height="32.0" rx="5.0" fill="#F5F7F9" stroke="#C3CAD2" stroke-width="1.2"/><text x="157.4" y="20.3" text-anchor="middle" font-family="Noto Sans JP, Hiragino Kaku Gothic ProN, sans-serif" font-size="12.0" font-weight="400" fill="#171B23">アーキテクチャのパターン ── 書籍 ・ 公式の記事</text></g></g><g class="wf-node" transform="translate(69.5,458.0)"><g class="svg-box" role="plain"><rect x="0" y="0" width="205.0" height="32.0" rx="5.0" fill="#F5F7F9" stroke="#C3CAD2" stroke-width="1.2"/><text x="102.5" y="20.3" text-anchor="middle" font-family="Noto Sans JP, Hiragino Kaku Gothic ProN, sans-serif" font-size="12.0" font-weight="400" fill="#171B23">ddd-advisor（DDD の文献）</text></g></g></g></svg>