<svg class="wf-fig" viewBox="0 0 328 100" width="328" height="100" role="img"><g transform="translate(6.0,6.0)"><path d="M60.6,16.0 L127.2,44.0" fill="none" stroke="#C3CAD2" stroke-width="1.2"/><polygon points="127.2,44.0 120.0,43.6 121.9,39.1" fill="#C3CAD2"/><path d="M64.6,72.0 L127.2,44.0" fill="none" stroke="#C3CAD2" stroke-width="1.2"/><polygon points="127.2,44.0 122.0,49.0 120.0,44.5" fill="#C3CAD2"/><path d="M188.8,44.0 L251.4,44.0" fill="none" stroke="#C3CAD2" stroke-width="1.2"/><polygon points="251.4,44.0 244.6,46.5 244.6,41.5" fill="#C3CAD2"/><path d="M251.4,44.0 L188.8,44.0" fill="none" stroke="#C3CAD2" stroke-width="1.2"/><polygon points="188.8,44.0 195.6,41.5 195.6,46.5" fill="#C3CAD2"/><g class="wf-node" transform="translate(0.0,0.0)"><g class="svg-box" role="plain"><rect x="0" y="0" width="60.0" height="32.0" rx="5.0" fill="#F5F7F9" stroke="#C3CAD2" stroke-width="1.2"/><text x="30.0" y="20.3" text-anchor="middle" font-family="Noto Sans JP, Hiragino Kaku Gothic ProN, sans-serif" font-size="12.0" font-weight="400" fill="#171B23">顧客</text></g></g><g class="wf-node" transform="translate(128.0,28.0)"><g class="svg-box" role="focus"><rect x="0" y="0" width="60.0" height="32.0" rx="5.0" fill="#E2EFF0" stroke="#16636B" stroke-width="1.6"/><text x="30.0" y="20.3" text-anchor="middle" font-family="Noto Sans JP, Hiragino Kaku Gothic ProN, sans-serif" font-size="12.0" font-weight="600" fill="#16636B">店</text></g></g><g class="wf-node" transform="translate(0.0,56.0)"><g class="svg-box" role="plain"><rect x="0" y="0" width="64.0" height="32.0" rx="5.0" fill="#F5F7F9" stroke="#C3CAD2" stroke-width="1.2"/><text x="32.0" y="20.3" text-anchor="middle" font-family="Noto Sans JP, Hiragino Kaku Gothic ProN, sans-serif" font-size="12.0" font-weight="400" fill="#171B23">税務署</text></g></g><g class="wf-node" transform="translate(252.0,28.0)"><g class="svg-box" role="plain"><rect x="0" y="0" width="64.0" height="32.0" rx="5.0" fill="#F5F7F9" stroke="#C3CAD2" stroke-width="1.2"/><text x="32.0" y="20.3" text-anchor="middle" font-family="Noto Sans JP, Hiragino Kaku Gothic ProN, sans-serif" font-size="12.0" font-weight="400" fill="#171B23">仕入先</text></g></g></g></svg>