<svg class="wf-fig" viewBox="0 0 710 420" width="710" height="420" role="img"><g transform="translate(292.0,20.0)"><g class="svg-box" role="plain"><rect x="0" y="0" width="76.0" height="32.0" rx="5.0" fill="#F5F7F9" stroke="#C3CAD2" stroke-width="1.2"/><text x="38.0" y="20.3" text-anchor="middle" font-family="Noto Sans JP, Hiragino Kaku Gothic ProN, sans-serif" font-size="12.0" font-weight="400" fill="#171B23">振る舞い</text></g></g><g transform="translate(560.0,20.0)"><g class="svg-box" role="plain"><rect x="0" y="0" width="76.0" height="32.0" rx="5.0" fill="#F5F7F9" stroke="#C3CAD2" stroke-width="1.2"/><text x="38.0" y="20.3" text-anchor="middle" font-family="Noto Sans JP, Hiragino Kaku Gothic ProN, sans-serif" font-size="12.0" font-weight="400" fill="#171B23">アクター</text></g></g><g><path d="M368.0,36.0 L560.0,36.0" fill="none" stroke="#79828F" stroke-width="1.2"/></g><g transform="translate(372.0,20.0)"><g><text x="0.0" y="7.9" text-anchor="start" font-family="Noto Sans JP, Hiragino Kaku Gothic ProN, sans-serif" font-size="11.0" font-weight="400" fill="#171B23">*</text></g></g><g transform="translate(549.0,20.0)"><g><text x="0.0" y="7.9" text-anchor="start" font-family="Noto Sans JP, Hiragino Kaku Gothic ProN, sans-serif" font-size="11.0" font-weight="400" fill="#171B23">1</text></g></g><g transform="translate(80.0,140.0)"><g class="svg-box" role="plain"><rect x="0" y="0" width="60.0" height="32.0" rx="5.0" fill="#F5F7F9" stroke="#C3CAD2" stroke-width="1.2"/><text x="30.0" y="20.3" text-anchor="middle" font-family="Noto Sans JP, Hiragino Kaku Gothic ProN, sans-serif" font-size="12.0" font-weight="400" fill="#171B23">役割</text></g></g><g transform="translate(270.0,140.0)"><g class="svg-box" role="plain"><rect x="0" y="0" width="60.0" height="32.0" rx="5.0" fill="#F5F7F9" stroke="#C3CAD2" stroke-width="1.2"/><text x="30.0" y="20.3" text-anchor="middle" font-family="Noto Sans JP, Hiragino Kaku Gothic ProN, sans-serif" font-size="12.0" font-weight="400" fill="#171B23">目的</text></g></g><g transform="translate(440.0,140.0)"><g class="svg-box" role="plain"><rect x="0" y="0" width="88.0" height="32.0" rx="5.0" fill="#F5F7F9" stroke="#C3CAD2" stroke-width="1.2"/><text x="44.0" y="20.3" text-anchor="middle" font-family="Noto Sans JP, Hiragino Kaku Gothic ProN, sans-serif" font-size="12.0" font-weight="400" fill="#171B23">アクション</text></g></g><g transform="translate(323.0,52.0)"><g transform="translate(-0.00,-0.00)"><path d="M7.0,0.0 L14.0,11.0 L0.0,11.0 Z" fill="none" stroke="#79828F" stroke-width="1.2"/></g></g><g><path d="M330.0,63.0 L330.0,95.0" fill="none" stroke="#79828F" stroke-width="1.2"/></g><g><path d="M110.0,95.0 L484.0,95.0" fill="none" stroke="#79828F" stroke-width="1.2"/></g><g><path d="M110.0,140.0 L110.0,95.0" fill="none" stroke="#79828F" stroke-width="1.2"/></g><g><path d="M300.0,140.0 L300.0,95.0" fill="none" stroke="#79828F" stroke-width="1.2"/></g><g><path d="M484.0,140.0 L484.0,95.0" fill="none" stroke="#79828F" stroke-width="1.2"/></g><g transform="translate(89.0,172.0)"><g transform="translate(-0.00,-0.00)"><path d="M6.0,0.0 L12.0,8.0 L6.0,16.0 L0.0,8.0 Z" fill="none" stroke="#79828F" stroke-width="1.2"/></g></g><g><path d="M95.0,188.0 L95.0,196.0" fill="none" stroke="#79828F" stroke-width="1.2"/></g><g><path d="M95.0,196.0 L128.0,196.0" fill="none" stroke="#79828F" stroke-width="1.2"/></g><g><path d="M128.0,196.0 L128.0,172.0" fill="none" stroke="#79828F" stroke-width="1.2"/><path class="wf-head" d="M130.5,178.8 L128.0,172.0 L125.5,178.8" fill="none" stroke="#79828F" stroke-width="1.2" stroke-linecap="round" stroke-linejoin="round"/></g><g transform="translate(85.0,184.0)"><g><text x="0.0" y="7.9" text-anchor="start" font-family="Noto Sans JP, Hiragino Kaku Gothic ProN, sans-serif" font-size="11.0" font-weight="400" fill="#171B23">1</text></g></g><g transform="translate(133.0,175.0)"><g><text x="0.0" y="7.9" text-anchor="start" font-family="Noto Sans JP, Hiragino Kaku Gothic ProN, sans-serif" font-size="11.0" font-weight="400" fill="#171B23">*</text></g></g><g transform="translate(279.0,172.0)"><g transform="translate(-0.00,-0.00)"><path d="M6.0,0.0 L12.0,8.0 L6.0,16.0 L0.0,8.0 Z" fill="none" stroke="#79828F" stroke-width="1.2"/></g></g><g><path d="M285.0,188.0 L285.0,196.0" fill="none" stroke="#79828F" stroke-width="1.2"/></g><g><path d="M285.0,196.0 L318.0,196.0" fill="none" stroke="#79828F" stroke-width="1.2"/></g><g><path d="M318.0,196.0 L318.0,172.0" fill="none" stroke="#79828F" stroke-width="1.2"/><path class="wf-head" d="M320.5,178.8 L318.0,172.0 L315.5,178.8" fill="none" stroke="#79828F" stroke-width="1.2" stroke-linecap="round" stroke-linejoin="round"/></g><g transform="translate(275.0,184.0)"><g><text x="0.0" y="7.9" text-anchor="start" font-family="Noto Sans JP, Hiragino Kaku Gothic ProN, sans-serif" font-size="11.0" font-weight="400" fill="#171B23">1</text></g></g><g transform="translate(323.0,175.0)"><g><text x="0.0" y="7.9" text-anchor="start" font-family="Noto Sans JP, Hiragino Kaku Gothic ProN, sans-serif" font-size="11.0" font-weight="400" fill="#171B23">*</text></g></g><g transform="translate(528.0,150.0)"><g transform="translate(-0.00,-0.00)"><path d="M0.0,6.0 L8.0,0.0 L16.0,6.0 L8.0,12.0 Z" fill="none" stroke="#79828F" stroke-width="1.2"/></g></g><g><path d="M544.0,156.0 L550.0,156.0" fill="none" stroke="#79828F" stroke-width="1.2"/></g><g><path d="M550.0,156.0 L550.0,118.0" fill="none" stroke="#79828F" stroke-width="1.2"/></g><g><path d="M550.0,118.0 L510.4,118.0" fill="none" stroke="#79828F" stroke-width="1.2"/></g><g><path d="M510.4,118.0 L510.4,140.0" fill="none" stroke="#79828F" stroke-width="1.2"/><path class="wf-head" d="M507.9,133.2 L510.4,140.0 L512.9,133.2" fill="none" stroke="#79828F" stroke-width="1.2" stroke-linecap="round" stroke-linejoin="round"/></g><g transform="translate(546.0,159.0)"><g><text x="0.0" y="7.9" text-anchor="start" font-family="Noto Sans JP, Hiragino Kaku Gothic ProN, sans-serif" font-size="11.0" font-weight="400" fill="#171B23">1</text></g></g><g transform="translate(515.4,126.0)"><g><text x="0.0" y="7.9" text-anchor="start" font-family="Noto Sans JP, Hiragino Kaku Gothic ProN, sans-serif" font-size="11.0" font-weight="400" fill="#171B23">*</text></g></g><g transform="translate(140.0,150.0)"><g transform="translate(-0.00,-0.00)"><path d="M0.0,6.0 L8.0,0.0 L16.0,6.0 L8.0,12.0 Z" fill="none" stroke="#79828F" stroke-width="1.2"/></g></g><g><path d="M156.0,156.0 L270.0,156.0" fill="none" stroke="#79828F" stroke-width="1.2"/></g><g transform="translate(330.0,150.0)"><g transform="translate(-0.00,-0.00)"><path d="M0.0,6.0 L8.0,0.0 L16.0,6.0 L8.0,12.0 Z" fill="none" stroke="#79828F" stroke-width="1.2"/></g></g><g><path d="M346.0,156.0 L440.0,156.0" fill="none" stroke="#79828F" stroke-width="1.2"/></g><g transform="translate(348.0,138.0)"><g><text x="0.0" y="7.9" text-anchor="start" font-family="Noto Sans JP, Hiragino Kaku Gothic ProN, sans-serif" font-size="11.0" font-weight="400" fill="#171B23">1</text></g></g><g transform="translate(429.0,140.0)"><g><text x="0.0" y="7.9" text-anchor="start" font-family="Noto Sans JP, Hiragino Kaku Gothic ProN, sans-serif" font-size="11.0" font-weight="400" fill="#171B23">*</text></g></g><g transform="translate(360.0,260.0)"><g class="svg-box" role="plain"><rect x="0" y="0" width="124.0" height="32.0" rx="5.0" fill="#F5F7F9" stroke="#C3CAD2" stroke-width="1.2"/><text x="62.0" y="20.3" text-anchor="middle" font-family="Noto Sans JP, Hiragino Kaku Gothic ProN, sans-serif" font-size="12.0" font-weight="400" fill="#171B23">非公開アクション</text></g></g><g transform="translate(566.0,260.0)"><g class="svg-box" role="plain"><rect x="0" y="0" width="76.0" height="32.0" rx="5.0" fill="#F5F7F9" stroke="#C3CAD2" stroke-width="1.2"/><text x="38.0" y="20.3" text-anchor="middle" font-family="Noto Sans JP, Hiragino Kaku Gothic ProN, sans-serif" font-size="12.0" font-weight="400" fill="#171B23">相互作用</text></g></g><g transform="translate(477.0,172.0)"><g transform="translate(-0.00,-0.00)"><path d="M7.0,0.0 L14.0,11.0 L0.0,11.0 Z" fill="none" stroke="#79828F" stroke-width="1.2"/></g></g><g><path d="M484.0,183.0 L484.0,225.0" fill="none" stroke="#79828F" stroke-width="1.2"/></g><g><path d="M422.0,225.0 L604.0,225.0" fill="none" stroke="#79828F" stroke-width="1.2"/></g><g><path d="M422.0,260.0 L422.0,225.0" fill="none" stroke="#79828F" stroke-width="1.2"/></g><g><path d="M604.0,260.0 L604.0,225.0" fill="none" stroke="#79828F" stroke-width="1.2"/></g><g><path d="M642.0,276.0 L690.0,276.0" fill="none" stroke="#79828F" stroke-width="1.2"/></g><g><path d="M690.0,276.0 L690.0,36.0" fill="none" stroke="#79828F" stroke-width="1.2"/></g><g><path d="M690.0,36.0 L636.0,36.0" fill="none" stroke="#79828F" stroke-width="1.2"/></g><g transform="translate(646.0,260.0)"><g><text x="0.0" y="7.9" text-anchor="start" font-family="Noto Sans JP, Hiragino Kaku Gothic ProN, sans-serif" font-size="11.0" font-weight="400" fill="#171B23">1</text></g></g><g transform="translate(640.0,20.0)"><g><text x="0.0" y="7.9" text-anchor="start" font-family="Noto Sans JP, Hiragino Kaku Gothic ProN, sans-serif" font-size="11.0" font-weight="400" fill="#171B23">*</text></g></g><g transform="translate(300.0,380.0)"><g class="svg-box" role="plain"><rect x="0" y="0" width="88.0" height="32.0" rx="5.0" fill="#F5F7F9" stroke="#C3CAD2" stroke-width="1.2"/><text x="44.0" y="20.3" text-anchor="middle" font-family="Noto Sans JP, Hiragino Kaku Gothic ProN, sans-serif" font-size="12.0" font-weight="400" fill="#171B23">妥当性確認</text></g></g><g transform="translate(440.0,380.0)"><g class="svg-box" role="plain"><rect x="0" y="0" width="76.0" height="32.0" rx="5.0" fill="#F5F7F9" stroke="#C3CAD2" stroke-width="1.2"/><text x="38.0" y="20.3" text-anchor="middle" font-family="Noto Sans JP, Hiragino Kaku Gothic ProN, sans-serif" font-size="12.0" font-weight="400" fill="#171B23">状態変化</text></g></g><g transform="translate(415.0,292.0)"><g transform="translate(-0.00,-0.00)"><path d="M7.0,0.0 L14.0,11.0 L0.0,11.0 Z" fill="none" stroke="#79828F" stroke-width="1.2"/></g></g><g><path d="M422.0,303.0 L422.0,345.0" fill="none" stroke="#79828F" stroke-width="1.2"/></g><g><path d="M344.0,345.0 L478.0,345.0" fill="none" stroke="#79828F" stroke-width="1.2"/></g><g><path d="M344.0,380.0 L344.0,345.0" fill="none" stroke="#79828F" stroke-width="1.2"/></g><g><path d="M478.0,380.0 L478.0,345.0" fill="none" stroke="#79828F" stroke-width="1.2"/></g><g transform="translate(40.0,260.0)"><g class="svg-box" role="plain"><rect x="0" y="0" width="88.0" height="32.0" rx="5.0" fill="#F5F7F9" stroke="#C3CAD2" stroke-width="1.2"/><text x="44.0" y="20.3" text-anchor="middle" font-family="Noto Sans JP, Hiragino Kaku Gothic ProN, sans-serif" font-size="12.0" font-weight="400" fill="#171B23">利害関係者</text></g></g><g transform="translate(220.0,260.0)"><g class="svg-box" role="plain"><rect x="0" y="0" width="60.0" height="32.0" rx="5.0" fill="#F5F7F9" stroke="#C3CAD2" stroke-width="1.2"/><text x="30.0" y="20.3" text-anchor="middle" font-family="Noto Sans JP, Hiragino Kaku Gothic ProN, sans-serif" font-size="12.0" font-weight="400" fill="#171B23">利益</text></g></g><g><path d="M128.0,276.0 L220.0,276.0" fill="none" stroke="#79828F" stroke-width="1.2"/></g><g transform="translate(132.0,260.0)"><g><text x="0.0" y="7.9" text-anchor="start" font-family="Noto Sans JP, Hiragino Kaku Gothic ProN, sans-serif" font-size="11.0" font-weight="400" fill="#171B23">1</text></g></g><g transform="translate(209.0,260.0)"><g><text x="0.0" y="7.9" text-anchor="start" font-family="Noto Sans JP, Hiragino Kaku Gothic ProN, sans-serif" font-size="11.0" font-weight="400" fill="#171B23">*</text></g></g><g><path d="M280.0,276.0 L360.0,276.0" fill="none" stroke="#79828F" stroke-width="1.2"/></g><g transform="translate(284.0,260.0)"><g><text x="0.0" y="7.9" text-anchor="start" font-family="Noto Sans JP, Hiragino Kaku Gothic ProN, sans-serif" font-size="11.0" font-weight="400" fill="#171B23">1</text></g></g><g transform="translate(349.0,260.0)"><g><text x="0.0" y="7.9" text-anchor="start" font-family="Noto Sans JP, Hiragino Kaku Gothic ProN, sans-serif" font-size="11.0" font-weight="400" fill="#171B23">1</text></g></g></svg>