<svg class="wf-fig" viewBox="0 0 510 460" width="510" height="460" role="img"><g transform="translate(200.0,10.0)"><rect x="0" y="0" width="300.0" height="440.0" rx="6.0" fill="none" stroke="#79828F" stroke-width="1.2"/></g><g transform="translate(210.0,17.0)"><g><text x="0.0" y="7.9" text-anchor="start" font-family="Noto Sans JP, Hiragino Kaku Gothic ProN, sans-serif" font-size="11.0" font-weight="400" fill="#4B5563">システム</text></g></g><g transform="translate(292.0,32.0)"><g transform="translate(-0.00,-0.00)"><path d="M0,18 C0,8.1 26.0,0 58.0,0 C90.0,0 116.0,8.1 116.0,18 C116.0,27.9 90.0,36 58.0,36 C26.0,36 0,27.9 0,18 Z" fill="none" stroke="#79828F" stroke-width="1.2"/></g></g><g transform="translate(314.0,44.4)"><g><text x="0.0" y="8.6" text-anchor="start" font-family="Noto Sans JP, Hiragino Kaku Gothic ProN, sans-serif" font-size="12.0" font-weight="400" fill="#171B23">ログインする</text></g></g><g transform="translate(262.0,78.0)"><g transform="translate(-0.00,-0.00)"><path d="M0,18 C0,8.1 39.4,0 88.0,0 C136.6,0 176.0,8.1 176.0,18 C176.0,27.9 136.6,36 88.0,36 C39.4,36 0,27.9 0,18 Z" fill="none" stroke="#79828F" stroke-width="1.2"/></g></g><g transform="translate(284.0,90.4)"><g><text x="0.0" y="8.6" text-anchor="start" font-family="Noto Sans JP, Hiragino Kaku Gothic ProN, sans-serif" font-size="12.0" font-weight="400" fill="#171B23">勤務時間報告を提出する</text></g></g><g transform="translate(280.0,124.0)"><g transform="translate(-0.00,-0.00)"><path d="M0,18 C0,8.1 31.3,0 70.0,0 C108.7,0 140.0,8.1 140.0,18 C140.0,27.9 108.7,36 70.0,36 C31.3,36 0,27.9 0,18 Z" fill="none" stroke="#79828F" stroke-width="1.2"/></g></g><g transform="translate(302.0,136.4)"><g><text x="0.0" y="8.6" text-anchor="start" font-family="Noto Sans JP, Hiragino Kaku Gothic ProN, sans-serif" font-size="12.0" font-weight="400" fill="#171B23">提出者を追加する</text></g></g><g transform="translate(280.0,170.0)"><g transform="translate(-0.00,-0.00)"><path d="M0,18 C0,8.1 31.3,0 70.0,0 C108.7,0 140.0,8.1 140.0,18 C140.0,27.9 108.7,36 70.0,36 C31.3,36 0,27.9 0,18 Z" fill="none" stroke="#79828F" stroke-width="1.2"/></g></g><g transform="translate(302.0,182.4)"><g><text x="0.0" y="8.6" text-anchor="start" font-family="Noto Sans JP, Hiragino Kaku Gothic ProN, sans-serif" font-size="12.0" font-weight="400" fill="#171B23">提出者を編集する</text></g></g><g transform="translate(280.0,216.0)"><g transform="translate(-0.00,-0.00)"><path d="M0,18 C0,8.1 31.3,0 70.0,0 C108.7,0 140.0,8.1 140.0,18 C140.0,27.9 108.7,36 70.0,36 C31.3,36 0,27.9 0,18 Z" fill="none" stroke="#79828F" stroke-width="1.2"/></g></g><g transform="translate(302.0,228.4)"><g><text x="0.0" y="8.6" text-anchor="start" font-family="Noto Sans JP, Hiragino Kaku Gothic ProN, sans-serif" font-size="12.0" font-weight="400" fill="#171B23">提出者を削除する</text></g></g><g transform="translate(262.0,262.0)"><g transform="translate(-0.00,-0.00)"><path d="M0,18 C0,8.1 39.4,0 88.0,0 C136.6,0 176.0,8.1 176.0,18 C176.0,27.9 136.6,36 88.0,36 C39.4,36 0,27.9 0,18 Z" fill="none" stroke="#79828F" stroke-width="1.2"/></g></g><g transform="translate(284.0,274.4)"><g><text x="0.0" y="8.6" text-anchor="start" font-family="Noto Sans JP, Hiragino Kaku Gothic ProN, sans-serif" font-size="12.0" font-weight="400" fill="#171B23">プロジェクトを追加する</text></g></g><g transform="translate(262.0,308.0)"><g transform="translate(-0.00,-0.00)"><path d="M0,18 C0,8.1 39.4,0 88.0,0 C136.6,0 176.0,8.1 176.0,18 C176.0,27.9 136.6,36 88.0,36 C39.4,36 0,27.9 0,18 Z" fill="none" stroke="#79828F" stroke-width="1.2"/></g></g><g transform="translate(284.0,320.4)"><g><text x="0.0" y="8.6" text-anchor="start" font-family="Noto Sans JP, Hiragino Kaku Gothic ProN, sans-serif" font-size="12.0" font-weight="400" fill="#171B23">プロジェクトを編集する</text></g></g><g transform="translate(262.0,354.0)"><g transform="translate(-0.00,-0.00)"><path d="M0,18 C0,8.1 39.4,0 88.0,0 C136.6,0 176.0,8.1 176.0,18 C176.0,27.9 136.6,36 88.0,36 C39.4,36 0,27.9 0,18 Z" fill="none" stroke="#79828F" stroke-width="1.2"/></g></g><g transform="translate(284.0,366.4)"><g><text x="0.0" y="8.6" text-anchor="start" font-family="Noto Sans JP, Hiragino Kaku Gothic ProN, sans-serif" font-size="12.0" font-weight="400" fill="#171B23">プロジェクトを削除する</text></g></g><g transform="translate(268.0,400.0)"><g transform="translate(-0.00,-0.00)"><path d="M0,18 C0,8.1 36.7,0 82.0,0 C127.3,0 164.0,8.1 164.0,18 C164.0,27.9 127.3,36 82.0,36 C36.7,36 0,27.9 0,18 Z" fill="none" stroke="#79828F" stroke-width="1.2"/></g></g><g transform="translate(290.0,412.4)"><g><text x="0.0" y="8.6" text-anchor="start" font-family="Noto Sans JP, Hiragino Kaku Gothic ProN, sans-serif" font-size="12.0" font-weight="400" fill="#171B23">月次報告書を作成する</text></g></g><g transform="translate(46.0,50.0)"><g transform="scale(1.167)"><circle cx="10.67" cy="5.33" r="5.33" fill="#F5F7F9" stroke="#16636B" stroke-width="2.057" stroke-linecap="round" stroke-linejoin="round"/><path d="M0,24 L0,21.33 C0,9.33 21.33,9.33 21.33,21.33 L21.33,24" fill="none" stroke="#16636B" stroke-width="2.057" stroke-linecap="round" stroke-linejoin="round"/></g></g><g transform="translate(42.0,82.4)"><g><text x="0.0" y="8.6" text-anchor="start" font-family="Noto Sans JP, Hiragino Kaku Gothic ProN, sans-serif" font-size="12.0" font-weight="400" fill="#171B23">提出者</text></g></g><g transform="translate(46.0,250.0)"><g transform="scale(1.167)"><circle cx="10.67" cy="5.33" r="5.33" fill="#F5F7F9" stroke="#16636B" stroke-width="2.057" stroke-linecap="round" stroke-linejoin="round"/><path d="M0,24 L0,21.33 C0,9.33 21.33,9.33 21.33,21.33 L21.33,24" fill="none" stroke="#16636B" stroke-width="2.057" stroke-linecap="round" stroke-linejoin="round"/></g></g><g transform="translate(42.0,282.4)"><g><text x="0.0" y="8.6" text-anchor="start" font-family="Noto Sans JP, Hiragino Kaku Gothic ProN, sans-serif" font-size="12.0" font-weight="400" fill="#171B23">管理者</text></g></g><g><path d="M80.0,70.0 L292.0,50.0" fill="none" stroke="#79828F" stroke-width="1.2"/><path class="wf-head" d="M285.5,53.1 L292.0,50.0 L285.0,48.2" fill="none" stroke="#79828F" stroke-width="1.2" stroke-linecap="round" stroke-linejoin="round"/></g><g><path d="M80.0,70.0 L262.0,96.0" fill="none" stroke="#79828F" stroke-width="1.2"/><path class="wf-head" d="M255.0,97.5 L262.0,96.0 L255.7,92.6" fill="none" stroke="#79828F" stroke-width="1.2" stroke-linecap="round" stroke-linejoin="round"/></g><g><path d="M80.0,268.0 L280.0,142.0" fill="none" stroke="#79828F" stroke-width="1.2"/><path class="wf-head" d="M275.6,147.7 L280.0,142.0 L273.0,143.5" fill="none" stroke="#79828F" stroke-width="1.2" stroke-linecap="round" stroke-linejoin="round"/></g><g><path d="M80.0,268.0 L280.0,188.0" fill="none" stroke="#79828F" stroke-width="1.2"/><path class="wf-head" d="M274.6,192.8 L280.0,188.0 L272.8,188.2" fill="none" stroke="#79828F" stroke-width="1.2" stroke-linecap="round" stroke-linejoin="round"/></g><g><path d="M80.0,268.0 L280.0,234.0" fill="none" stroke="#79828F" stroke-width="1.2"/><path class="wf-head" d="M273.7,237.6 L280.0,234.0 L272.9,232.7" fill="none" stroke="#79828F" stroke-width="1.2" stroke-linecap="round" stroke-linejoin="round"/></g><g><path d="M80.0,268.0 L262.0,280.0" fill="none" stroke="#79828F" stroke-width="1.2"/><path class="wf-head" d="M255.1,282.0 L262.0,280.0 L255.4,277.1" fill="none" stroke="#79828F" stroke-width="1.2" stroke-linecap="round" stroke-linejoin="round"/></g><g><path d="M80.0,268.0 L262.0,326.0" fill="none" stroke="#79828F" stroke-width="1.2"/><path class="wf-head" d="M254.8,326.3 L262.0,326.0 L256.3,321.6" fill="none" stroke="#79828F" stroke-width="1.2" stroke-linecap="round" stroke-linejoin="round"/></g><g><path d="M80.0,268.0 L262.0,372.0" fill="none" stroke="#79828F" stroke-width="1.2"/><path class="wf-head" d="M254.9,370.8 L262.0,372.0 L257.3,366.5" fill="none" stroke="#79828F" stroke-width="1.2" stroke-linecap="round" stroke-linejoin="round"/></g><g><path d="M80.0,268.0 L268.0,418.0" fill="none" stroke="#79828F" stroke-width="1.2"/><path class="wf-head" d="M261.2,415.7 L268.0,418.0 L264.2,411.9" fill="none" stroke="#79828F" stroke-width="1.2" stroke-linecap="round" stroke-linejoin="round"/></g><g transform="translate(53.0,104.0)"><g transform="translate(-0.00,-0.00)"><path d="M7.0,0.0 L14.0,11.0 L0.0,11.0 Z" fill="none" stroke="#79828F" stroke-width="1.2"/></g></g><g><path d="M60.0,248.0 L60.0,115.0" fill="none" stroke="#79828F" stroke-width="1.2"/></g></svg>