<svg class="wf-fig" viewBox="0 0 591 236" width="591" height="236" role="img"><g transform="translate(6.0,6.0)"><path d="M286.9,32.6 L136.1,95.4" fill="none" stroke="#9fb0ab" stroke-width="1.2"/><polygon points="136.1,95.4 141.4,90.5 143.3,95.1" fill="#9fb0ab"/><rect x="172.5" y="54.0" width="78.0" height="16.0" fill="#f8faf9"/><text x="211.5" y="67.6" text-anchor="middle" font-family="Noto Sans JP, Hiragino Kaku Gothic ProN, sans-serif" font-size="10.0" fill="#7d8a86">書いてある範囲</text><path d="M286.9,32.6 L437.2,95.2" fill="none" stroke="#9fb0ab" stroke-width="1.2"/><polygon points="437.2,95.2 430.0,94.9 431.9,90.3" fill="#9fb0ab"/><rect x="278.0" y="53.9" width="168.0" height="16.0" fill="#f8faf9"/><text x="362.0" y="67.5" text-anchor="middle" font-family="Noto Sans JP, Hiragino Kaku Gothic ProN, sans-serif" font-size="10.0" fill="#7d8a86">降りてこない範囲｜こちら側が書く</text><path d="M136.1,128.6 L287.4,191.4" fill="none" stroke="#9fb0ab" stroke-width="1.2"/><polygon points="287.4,191.4 280.2,191.1 282.1,186.5" fill="#9fb0ab"/><rect x="183.0" y="150.0" width="57.5" height="16.0" fill="#f8faf9"/><text x="211.8" y="163.6" text-anchor="middle" font-family="Noto Sans JP, Hiragino Kaku Gothic ProN, sans-serif" font-size="10.0" fill="#7d8a86">id で指す</text><path d="M438.2,128.8 L287.4,191.4" fill="none" stroke="#9fb0ab" stroke-width="1.2"/><polygon points="287.4,191.4 292.7,186.5 294.6,191.1" fill="#9fb0ab"/><rect x="328.8" y="150.1" width="68.0" height="16.0" fill="#f8faf9"/><text x="362.8" y="163.7" text-anchor="middle" font-family="Noto Sans JP, Hiragino Kaku Gothic ProN, sans-serif" font-size="10.0" fill="#7d8a86">項目名で指す</text><g class="wf-node" transform="translate(212.9,0.0)"><g class="svg-box" role="plain"><rect x="0" y="0" width="148.0" height="32.0" rx="5.0" fill="#f8faf9" stroke="#C3CAD2" stroke-width="1.2"/><text x="74.0" y="20.3" text-anchor="middle" font-family="Noto Sans JP, Hiragino Kaku Gothic ProN, sans-serif" font-size="12.0" font-weight="400" fill="#111d1a">原典（外の一次情報）</text></g></g><g class="wf-node" transform="translate(0.0,96.0)"><g class="svg-box" role="plain"><rect x="0" y="0" width="272.2" height="32.0" rx="5.0" fill="#f8faf9" stroke="#C3CAD2" stroke-width="1.2"/><text x="136.1" y="20.3" text-anchor="middle" font-family="Noto Sans JP, Hiragino Kaku Gothic ProN, sans-serif" font-size="12.0" font-weight="400" fill="#111d1a">sources/*.meta.json｜実体は置かない</text></g></g><g class="wf-node" transform="translate(296.2,96.0)"><g class="svg-box" role="focus"><rect x="0" y="0" width="283.0" height="32.0" rx="5.0" fill="#d5e6e3" stroke="#0d5c55" stroke-width="1.6"/><text x="141.5" y="20.3" text-anchor="middle" font-family="Noto Sans JP, Hiragino Kaku Gothic ProN, sans-serif" font-size="12.0" font-weight="600" fill="#0d5c55">宣言｜層名→パス ・ 許可辺 ・ テストの配置</text></g></g><g class="wf-node" transform="translate(175.1,192.0)"><g class="svg-box" role="plain"><rect x="0" y="0" width="223.6" height="32.0" rx="5.0" fill="#f8faf9" stroke="#C3CAD2" stroke-width="1.2"/><text x="111.8" y="20.3" text-anchor="middle" font-family="Noto Sans JP, Hiragino Kaku Gothic ProN, sans-serif" font-size="12.0" font-weight="400" fill="#111d1a">規則｜引用文字列 ＋ 宣言の項目名</text></g></g></g></svg>