<svg class="wf-fig" viewBox="0 0 870 332" width="870" height="332" role="img"><g transform="translate(6.0,6.0)"><path d="M288.5,32.6 L128.0,95.4" fill="none" stroke="#C3CAD2" stroke-width="1.2"/><polygon points="128.0,95.4 133.4,90.6 135.2,95.2" fill="#C3CAD2"/><rect x="194.2" y="54.0" width="28.0" height="16.0" fill="#F5F7F9"/><text x="208.2" y="67.6" text-anchor="middle" font-family="Noto Sans JP, Hiragino Kaku Gothic ProN, sans-serif" font-size="10.0" fill="#79828F">はい</text><path d="M288.5,32.6 L450.0,95.4" fill="none" stroke="#C3CAD2" stroke-width="1.2"/><polygon points="450.0,95.4 442.8,95.2 444.6,90.7" fill="#C3CAD2"/><rect x="350.2" y="54.0" width="38.0" height="16.0" fill="#F5F7F9"/><text x="369.2" y="67.6" text-anchor="middle" font-family="Noto Sans JP, Hiragino Kaku Gothic ProN, sans-serif" font-size="10.0" fill="#79828F">いいえ</text><path d="M450.0,128.6 L304.0,191.4" fill="none" stroke="#C3CAD2" stroke-width="1.2"/><polygon points="304.0,191.4 309.2,186.5 311.2,191.0" fill="#C3CAD2"/><rect x="363.0" y="150.0" width="28.0" height="16.0" fill="#F5F7F9"/><text x="377.0" y="163.6" text-anchor="middle" font-family="Noto Sans JP, Hiragino Kaku Gothic ProN, sans-serif" font-size="10.0" fill="#79828F">はい</text><path d="M450.0,128.6 L596.0,191.4" fill="none" stroke="#C3CAD2" stroke-width="1.2"/><polygon points="596.0,191.4 588.8,191.0 590.8,186.5" fill="#C3CAD2"/><rect x="504.0" y="150.0" width="38.0" height="16.0" fill="#F5F7F9"/><text x="523.0" y="163.6" text-anchor="middle" font-family="Noto Sans JP, Hiragino Kaku Gothic ProN, sans-serif" font-size="10.0" fill="#79828F">いいえ</text><path d="M596.0,224.6 L456.0,287.4" fill="none" stroke="#C3CAD2" stroke-width="1.2"/><polygon points="456.0,287.4 461.2,282.4 463.2,286.9" fill="#C3CAD2"/><rect x="512.0" y="246.0" width="28.0" height="16.0" fill="#F5F7F9"/><text x="526.0" y="259.6" text-anchor="middle" font-family="Noto Sans JP, Hiragino Kaku Gothic ProN, sans-serif" font-size="10.0" fill="#79828F">はい</text><path d="M596.0,224.6 L736.0,287.4" fill="none" stroke="#C3CAD2" stroke-width="1.2"/><polygon points="736.0,287.4 728.8,286.9 730.8,282.4" fill="#C3CAD2"/><rect x="647.0" y="246.0" width="38.0" height="16.0" fill="#F5F7F9"/><text x="666.0" y="259.6" text-anchor="middle" font-family="Noto Sans JP, Hiragino Kaku Gothic ProN, sans-serif" font-size="10.0" fill="#79828F">いいえ</text><g class="wf-node" transform="translate(57.5,0.0)"><g class="svg-box" role="plain"><rect x="0" y="0" width="463.0" height="32.0" rx="5.0" fill="#F5F7F9" stroke="#C3CAD2" stroke-width="1.2"/><text x="231.5" y="20.3" text-anchor="middle" font-family="Noto Sans JP, Hiragino Kaku Gothic ProN, sans-serif" font-size="12.0" font-weight="400" fill="#171B23">このコードは特定の技術（DB・フレームワーク・外部API）を直接知っているか</text></g></g><g class="wf-node" transform="translate(0.0,96.0)"><g class="svg-box" role="plain"><rect x="0" y="0" width="256.0" height="32.0" rx="5.0" fill="#F5F7F9" stroke="#C3CAD2" stroke-width="1.2"/><text x="128.0" y="20.3" text-anchor="middle" font-family="Noto Sans JP, Hiragino Kaku Gothic ProN, sans-serif" font-size="12.0" font-weight="400" fill="#171B23">外側の層（アダプター／インフラ）に置く</text></g></g><g class="wf-node" transform="translate(280.0,96.0)"><g class="svg-box" role="plain"><rect x="0" y="0" width="340.0" height="32.0" rx="5.0" fill="#F5F7F9" stroke="#C3CAD2" stroke-width="1.2"/><text x="170.0" y="20.3" text-anchor="middle" font-family="Noto Sans JP, Hiragino Kaku Gothic ProN, sans-serif" font-size="12.0" font-weight="400" fill="#171B23">このコードはビジネスルール・不変条件を表現しているか</text></g></g><g class="wf-node" transform="translate(212.0,192.0)"><g class="svg-box" role="plain"><rect x="0" y="0" width="184.0" height="32.0" rx="5.0" fill="#F5F7F9" stroke="#C3CAD2" stroke-width="1.2"/><text x="92.0" y="20.3" text-anchor="middle" font-family="Noto Sans JP, Hiragino Kaku Gothic ProN, sans-serif" font-size="12.0" font-weight="400" fill="#171B23">内側の層（ドメイン）に置く</text></g></g><g class="wf-node" transform="translate(420.0,192.0)"><g class="svg-box" role="plain"><rect x="0" y="0" width="352.0" height="32.0" rx="5.0" fill="#F5F7F9" stroke="#C3CAD2" stroke-width="1.2"/><text x="176.0" y="20.3" text-anchor="middle" font-family="Noto Sans JP, Hiragino Kaku Gothic ProN, sans-serif" font-size="12.0" font-weight="400" fill="#171B23">このコードは複数のユースケースを横断して調整する処理か</text></g></g><g class="wf-node" transform="translate(322.0,288.0)"><g class="svg-box" role="plain"><rect x="0" y="0" width="268.0" height="32.0" rx="5.0" fill="#F5F7F9" stroke="#C3CAD2" stroke-width="1.2"/><text x="134.0" y="20.3" text-anchor="middle" font-family="Noto Sans JP, Hiragino Kaku Gothic ProN, sans-serif" font-size="12.0" font-weight="400" fill="#171B23">アプリケーション層（ユースケース）に置く</text></g></g><g class="wf-node" transform="translate(614.0,288.0)"><g class="svg-box" role="plain"><rect x="0" y="0" width="244.0" height="32.0" rx="5.0" fill="#F5F7F9" stroke="#C3CAD2" stroke-width="1.2"/><text x="122.0" y="20.3" text-anchor="middle" font-family="Noto Sans JP, Hiragino Kaku Gothic ProN, sans-serif" font-size="12.0" font-weight="400" fill="#171B23">責務が曖昧な可能性が高い。再検討する</text></g></g></g></svg>