<svg class="wf-fig" viewBox="0 0 560 220" width="560" height="220" role="img"><rect x="0" y="0" width="560" height="220" fill="#FAFAF8"/><g transform="translate(90.0,90.0) rotate(12)"><g><g class="svg-box" role="plain"><rect x="0" y="0" width="60.0" height="32.0" rx="5.0" fill="#F5F7F9" stroke="#C3CAD2" stroke-width="1.2"/><text x="30.0" y="20.3" text-anchor="middle" font-family="Noto Sans JP, Hiragino Kaku Gothic ProN, sans-serif" font-size="12.0" font-weight="400" fill="#171B23">A</text></g></g><g transform="translate(90.0,0.0)"><g class="svg-box" role="plain"><rect x="0" y="0" width="60.0" height="32.0" rx="5.0" fill="#F5F7F9" stroke="#C3CAD2" stroke-width="1.2"/><text x="30.0" y="20.3" text-anchor="middle" font-family="Noto Sans JP, Hiragino Kaku Gothic ProN, sans-serif" font-size="12.0" font-weight="400" fill="#171B23">B</text></g></g><g transform="translate(30.0,44.0)"><g transform="scale(0.833)"><path d="M12,1 L14.6,9.4 L23,12 L14.6,14.6 L12,23 L9.4,14.6 L1,12 L9.4,9.4 Z" fill="#16636B"/></g></g></g><defs><clipPath id="clipd2d8a331" transform="translate(20.0,20.0)"><circle cx="34.0" cy="34.0" r="34.0" fill="#171B23"/></clipPath></defs><g transform="translate(260.0,40.0)" clip-path="url(#clipd2d8a331)"><g transform="translate(5.00,10.00)"><path d="M0,40 C0,10 30,-10 60,0 C95,12 100,45 80,65 C60,85 20,85 5,65 C-5,52 0,50 0,40 Z" fill="#2F6F6B" stroke="#2F6F6B" stroke-width="1.2"/></g></g><g transform="translate(380.0,40.0)"><g transform="translate(5.00,10.00)"><path d="M0,40 C0,10 30,-10 60,0 C95,12 100,45 80,65 C60,85 20,85 5,65 C-5,52 0,50 0,40 Z" fill="none" stroke="#2F6F6B" stroke-width="1.2"/></g></g></svg>