<svg class="wf-fig" viewBox="0 0 710 472" width="710" height="472" role="img"><g transform="translate(6.0,6.0)"><rect x="0.0" y="160.0" width="226.4" height="252.0" rx="8.0" fill="none" stroke="#16636B" stroke-width="1.1" stroke-dasharray="5 4" opacity="0.75"/><rect x="250.4" y="112.0" width="212.0" height="348.0" rx="8.0" fill="none" stroke="#16636B" stroke-width="1.1" stroke-dasharray="5 4" opacity="0.75"/><rect x="486.4" y="160.0" width="212.0" height="252.0" rx="8.0" fill="none" stroke="#16636B" stroke-width="1.1" stroke-dasharray="5 4" opacity="0.75"/><path d="M113.2,32.6 L113.2,173.2" fill="none" stroke="#C3CAD2" stroke-width="1.2"/><polygon points="113.2,173.2 110.7,166.4 115.7,166.4" fill="#C3CAD2"/><path d="M356.4,32.6 L356.4,125.4" fill="none" stroke="#C3CAD2" stroke-width="1.2"/><polygon points="356.4,125.4 353.9,118.6 358.9,118.6" fill="#C3CAD2"/><path d="M592.4,32.6 L592.4,173.4" fill="none" stroke="#C3CAD2" stroke-width="1.2"/><polygon points="592.4,173.4 589.9,166.6 594.9,166.6" fill="#C3CAD2"/><rect x="8.0" y="151.0" width="81.0" height="15.0" fill="#F5F7F9"/><text x="48.5" y="162.0" text-anchor="middle" font-family="Noto Sans JP, Hiragino Kaku Gothic ProN, sans-serif" font-size="10.0" fill="#16636B">判断基準：23件</text><rect x="258.4" y="103.0" width="98.0" height="15.0" fill="#F5F7F9"/><text x="307.4" y="114.0" text-anchor="middle" font-family="Noto Sans JP, Hiragino Kaku Gothic ProN, sans-serif" font-size="10.0" fill="#16636B">相談者から受け取る</text><rect x="494.4" y="151.0" width="156.5" height="15.0" fill="#F5F7F9"/><text x="572.6" y="162.0" text-anchor="middle" font-family="Noto Sans JP, Hiragino Kaku Gothic ProN, sans-serif" font-size="10.0" fill="#16636B">advisor が提案する（論点2）</text><g class="wf-node" transform="translate(57.2,0.0)"><g class="svg-box" role="muted"><rect x="0" y="0" width="112.0" height="32.0" rx="5.0" fill="none" stroke="#79828F" stroke-width="1.2" stroke-dasharray="4 3"/><text x="56.0" y="20.3" text-anchor="middle" font-family="Noto Sans JP, Hiragino Kaku Gothic ProN, sans-serif" font-size="12.0" font-weight="400" fill="#79828F">根拠：判断基準</text></g></g><g class="wf-node" transform="translate(282.4,0.0)"><g class="svg-box" role="muted"><rect x="0" y="0" width="148.0" height="32.0" rx="5.0" fill="none" stroke="#79828F" stroke-width="1.2" stroke-dasharray="4 3"/><text x="74.0" y="20.3" text-anchor="middle" font-family="Noto Sans JP, Hiragino Kaku Gothic ProN, sans-serif" font-size="12.0" font-weight="400" fill="#79828F">中心：どれで揃えるか</text></g></g><g class="wf-node" transform="translate(512.4,0.0)"><g class="svg-box" role="muted"><rect x="0" y="0" width="160.0" height="32.0" rx="5.0" fill="none" stroke="#79828F" stroke-width="1.2" stroke-dasharray="4 3"/><text x="80.0" y="20.3" text-anchor="middle" font-family="Noto Sans JP, Hiragino Kaku Gothic ProN, sans-serif" font-size="12.0" font-weight="400" fill="#79828F">提案と決まらないところ</text></g></g><g class="wf-node" transform="translate(42.2,174.0)"><g class="svg-box" role="focus"><rect x="0" y="0" width="142.0" height="32.0" rx="5.0" fill="#E2EFF0" stroke="#16636B" stroke-width="1.6"/><text x="71.0" y="20.3" text-anchor="middle" font-family="Noto Sans JP, Hiragino Kaku Gothic ProN, sans-serif" font-size="12.0" font-weight="600" fill="#16636B">WCAG 2.2（13件）</text></g></g><g class="wf-node" transform="translate(14.0,270.0)"><g class="svg-box" role="plain"><rect x="0" y="0" width="198.4" height="32.0" rx="5.0" fill="#F5F7F9" stroke="#C3CAD2" stroke-width="1.2"/><text x="99.2" y="20.3" text-anchor="middle" font-family="Noto Sans JP, Hiragino Kaku Gothic ProN, sans-serif" font-size="12.0" font-weight="400" fill="#171B23">WCAG2ICT（各件の中に持つ）</text></g></g><g class="wf-node" transform="translate(46.1,366.0)"><g class="svg-box" role="focus"><rect x="0" y="0" width="134.2" height="32.0" rx="5.0" fill="#E2EFF0" stroke="#16636B" stroke-width="1.6"/><text x="67.1" y="20.3" text-anchor="middle" font-family="Noto Sans JP, Hiragino Kaku Gothic ProN, sans-serif" font-size="12.0" font-weight="600" fill="#16636B">Nielsen（10件）</text></g></g><g class="wf-node" transform="translate(270.4,126.0)"><g class="svg-box" role="plain"><rect x="0" y="0" width="172.0" height="32.0" rx="5.0" fill="#F5F7F9" stroke="#C3CAD2" stroke-width="1.2"/><text x="86.0" y="20.3" text-anchor="middle" font-family="Noto Sans JP, Hiragino Kaku Gothic ProN, sans-serif" font-size="12.0" font-weight="400" fill="#171B23">デザインシステム（画面）</text></g></g><g class="wf-node" transform="translate(264.4,222.0)"><g class="svg-box" role="plain"><rect x="0" y="0" width="184.0" height="32.0" rx="5.0" fill="#F5F7F9" stroke="#C3CAD2" stroke-width="1.2"/><text x="92.0" y="20.3" text-anchor="middle" font-family="Noto Sans JP, Hiragino Kaku Gothic ProN, sans-serif" font-size="12.0" font-weight="400" fill="#171B23">スタイルガイド（画面の外）</text></g></g><g class="wf-node" transform="translate(272.2,318.0)"><g class="svg-box" role="plain"><rect x="0" y="0" width="168.4" height="32.0" rx="5.0" fill="#F5F7F9" stroke="#C3CAD2" stroke-width="1.2"/><text x="84.2" y="20.3" text-anchor="middle" font-family="Noto Sans JP, Hiragino Kaku Gothic ProN, sans-serif" font-size="12.0" font-weight="400" fill="#171B23">doc-writing-skills</text></g></g><g class="wf-node" transform="translate(506.4,174.0)"><g class="svg-box" role="plain"><rect x="0" y="0" width="172.0" height="32.0" rx="5.0" fill="#F5F7F9" stroke="#C3CAD2" stroke-width="1.2"/><text x="86.0" y="20.3" text-anchor="middle" font-family="Noto Sans JP, Hiragino Kaku Gothic ProN, sans-serif" font-size="12.0" font-weight="400" fill="#171B23">持たない種類：原則を提案</text></g></g><g class="wf-node" transform="translate(500.4,270.0)"><g class="svg-box" role="plain"><rect x="0" y="0" width="184.0" height="32.0" rx="5.0" fill="#F5F7F9" stroke="#C3CAD2" stroke-width="1.2"/><text x="92.0" y="20.3" text-anchor="middle" font-family="Noto Sans JP, Hiragino Kaku Gothic ProN, sans-serif" font-size="12.0" font-weight="400" fill="#171B23">決まらない値：候補を並べる</text></g></g><g class="wf-node" transform="translate(500.4,366.0)"><g class="svg-box" role="plain"><rect x="0" y="0" width="184.0" height="32.0" rx="5.0" fill="#F5F7F9" stroke="#C3CAD2" stroke-width="1.2"/><text x="92.0" y="20.3" text-anchor="middle" font-family="Noto Sans JP, Hiragino Kaku Gothic ProN, sans-serif" font-size="12.0" font-weight="400" fill="#171B23">デザインシステムの外の判断</text></g></g><g class="wf-node" transform="translate(265.9,414.0)"><g class="svg-box" role="plain"><rect x="0" y="0" width="181.0" height="32.0" rx="5.0" fill="#F5F7F9" stroke="#C3CAD2" stroke-width="1.2"/><text x="90.5" y="20.3" text-anchor="middle" font-family="Noto Sans JP, Hiragino Kaku Gothic ProN, sans-serif" font-size="12.0" font-weight="400" fill="#171B23">skills-creator の契約</text></g></g></g></svg>