<svg class="wf-fig" viewBox="0 0 960 44" width="960" height="44" role="img"><g transform="translate(6.0,6.0)"><path d="M76.0,16.0 L138.8,16.0" fill="none" stroke="#C3CAD2" stroke-width="1.2"/><polygon points="138.8,16.0 132.0,18.5 132.0,13.5" fill="#C3CAD2"/><path d="M251.4,16.0 L314.2,16.0" fill="none" stroke="#C3CAD2" stroke-width="1.2"/><polygon points="314.2,16.0 307.4,18.5 307.4,13.5" fill="#C3CAD2"/><path d="M462.8,16.0 L525.4,16.0" fill="none" stroke="#C3CAD2" stroke-width="1.2"/><polygon points="525.4,16.0 518.6,18.5 518.6,13.5" fill="#C3CAD2"/><path d="M666.0,16.0 L728.6,16.0" fill="none" stroke="#C3CAD2" stroke-width="1.2" stroke-dasharray="4 3"/><polygon points="728.6,16.0 721.8,18.5 721.8,13.5" fill="#C3CAD2"/><g class="wf-node" transform="translate(0.0,0.0)"><g class="svg-box" role="plain"><rect x="0" y="0" width="75.4" height="32.0" rx="5.0" fill="#F5F7F9" stroke="#C3CAD2" stroke-width="1.2"/><text x="37.7" y="20.3" text-anchor="middle" font-family="Noto Sans JP, Hiragino Kaku Gothic ProN, sans-serif" font-size="12.0" font-weight="400" fill="#171B23">11 指標</text></g></g><g class="wf-node" transform="translate(139.4,0.0)"><g class="svg-box" role="plain"><rect x="0" y="0" width="111.4" height="32.0" rx="5.0" fill="#F5F7F9" stroke="#C3CAD2" stroke-width="1.2"/><text x="55.7" y="20.3" text-anchor="middle" font-family="Noto Sans JP, Hiragino Kaku Gothic ProN, sans-serif" font-size="12.0" font-weight="400" fill="#171B23">12 測る手続き</text></g></g><g class="wf-node" transform="translate(314.8,0.0)"><g class="svg-box" role="plain"><rect x="0" y="0" width="147.4" height="32.0" rx="5.0" fill="#F5F7F9" stroke="#C3CAD2" stroke-width="1.2"/><text x="73.7" y="20.3" text-anchor="middle" font-family="Noto Sans JP, Hiragino Kaku Gothic ProN, sans-serif" font-size="12.0" font-weight="400" fill="#171B23">13 設問の区分と尺度</text></g></g><g class="wf-node" transform="translate(526.2,0.0)"><g class="svg-box" role="focus"><rect x="0" y="0" width="139.0" height="32.0" rx="5.0" fill="#E2EFF0" stroke="#16636B" stroke-width="1.6"/><text x="69.5" y="20.3" text-anchor="middle" font-family="Noto Sans JP, Hiragino Kaku Gothic ProN, sans-serif" font-size="12.0" font-weight="600" fill="#16636B">14・15 設問の実物</text></g></g><g class="wf-node" transform="translate(729.2,0.0)"><g class="svg-box" role="plain"><rect x="0" y="0" width="218.8" height="32.0" rx="5.0" fill="#F5F7F9" stroke="#C3CAD2" stroke-width="1.2"/><text x="109.4" y="20.3" text-anchor="middle" font-family="Noto Sans JP, Hiragino Kaku Gothic ProN, sans-serif" font-size="12.0" font-weight="400" fill="#171B23">付録 22〜32 回答フォームの体裁</text></g></g></g></svg>