<svg class="wf-fig" viewBox="0 0 818 140" width="818" height="140" role="img"><g transform="translate(6.0,6.0)"><path d="M347.5,16.0 L412.0,16.0" fill="none" stroke="var(--rule)" stroke-width="1.2"/><polygon points="412.0,16.0 405.2,18.5 405.2,13.5" fill="var(--rule)"/><path d="M194.8,32.6 L194.3,95.4" fill="none" stroke="var(--rule)" stroke-width="1.2"/><polygon points="194.3,95.4 191.9,88.6 196.8,88.7" fill="var(--rule)"/><path d="M389.2,112.0 L430.1,112.0" fill="none" stroke="var(--rule)" stroke-width="1.2"/><polygon points="430.1,112.0 423.3,114.5 423.3,109.5" fill="var(--rule)"/><g class="wf-node" transform="translate(41.7,0.0)"><g class="svg-box" role="plain"><rect x="0" y="0" width="305.2" height="32.0" rx="5.0" fill="var(--card)" stroke="var(--rule)" stroke-width="1.2"/><text x="152.6" y="20.3" text-anchor="middle" font-family="Noto Sans JP, Hiragino Kaku Gothic ProN, sans-serif" font-size="12.0" font-weight="400" fill="var(--ink)">declare/src/lib.rs：use acd_parts::…</text></g></g><g class="wf-node" transform="translate(412.6,0.0)"><g class="svg-box" role="warn"><rect x="0" y="0" width="393.4" height="32.0" rx="5.0" fill="var(--warn-soft)" stroke="var(--warn)" stroke-width="1.2"/><text x="196.7" y="20.3" text-anchor="middle" font-family="Noto Sans JP, Hiragino Kaku Gothic ProN, sans-serif" font-size="12.0" font-weight="400" fill="var(--warn)">いま：acd_parts はどの層にも一致しない → 判定されず、合格</text></g></g><g class="wf-node" transform="translate(0.0,96.0)"><g class="svg-box" role="plain"><rect x="0" y="0" width="388.6" height="32.0" rx="5.0" fill="var(--card)" stroke="var(--rule)" stroke-width="1.2"/><text x="194.3" y="20.3" text-anchor="middle" font-family="Noto Sans JP, Hiragino Kaku Gothic ProN, sans-serif" font-size="12.0" font-weight="400" fill="var(--ink)">変更後：Cargo.toml の name = acd_parts → 層 parts</text></g></g><g class="wf-node" transform="translate(430.9,96.0)"><g class="svg-box" role="focus"><rect x="0" y="0" width="356.8" height="32.0" rx="5.0" fill="var(--key-soft)" stroke="var(--key)" stroke-width="1.6"/><text x="178.4" y="20.3" text-anchor="middle" font-family="Noto Sans JP, Hiragino Kaku Gothic ProN, sans-serif" font-size="12.0" font-weight="600" fill="var(--key)">declare → parts を判定する（並びを逆にすれば検出）</text></g></g></g></svg>