<svg class="wf-fig" viewBox="0 0 432 236" width="432" height="236" role="img"><g transform="translate(6.0,6.0)"><path d="M124.6,112.0 L295.4,112.0" fill="none" stroke="#C3CAD2" stroke-width="1.2"/><polygon points="295.4,112.0 288.6,114.5 288.6,109.5" fill="#C3CAD2"/><path d="M358.0,128.6 L210.0,191.4" fill="none" stroke="#C3CAD2" stroke-width="1.2"/><polygon points="210.0,191.4 215.3,186.5 217.2,191.0" fill="#C3CAD2"/><path d="M210.0,191.4 L210.0,32.6" fill="none" stroke="#C3CAD2" stroke-width="1.2" stroke-dasharray="4 3"/><polygon points="210.0,32.6 212.5,39.4 207.5,39.4" fill="#C3CAD2"/><g class="wf-node" transform="translate(148.0,0.0)"><g class="svg-box" role="plain"><rect x="0" y="0" width="124.0" height="32.0" rx="5.0" fill="#F5F7F9" stroke="#C3CAD2" stroke-width="1.2"/><text x="62.0" y="20.3" text-anchor="middle" font-family="Noto Sans JP, Hiragino Kaku Gothic ProN, sans-serif" font-size="12.0" font-weight="400" fill="#171B23">マイクロサービス</text></g></g><g class="wf-node" transform="translate(0.0,96.0)"><g class="svg-box" role="plain"><rect x="0" y="0" width="124.0" height="32.0" rx="5.0" fill="#F5F7F9" stroke="#C3CAD2" stroke-width="1.2"/><text x="62.0" y="20.3" text-anchor="middle" font-family="Noto Sans JP, Hiragino Kaku Gothic ProN, sans-serif" font-size="12.0" font-weight="400" fill="#171B23">マイクロサービス</text></g></g><g class="wf-node" transform="translate(296.0,96.0)"><g class="svg-box" role="plain"><rect x="0" y="0" width="124.0" height="32.0" rx="5.0" fill="#F5F7F9" stroke="#C3CAD2" stroke-width="1.2"/><text x="62.0" y="20.3" text-anchor="middle" font-family="Noto Sans JP, Hiragino Kaku Gothic ProN, sans-serif" font-size="12.0" font-weight="400" fill="#171B23">マイクロサービス</text></g></g><g class="wf-node" transform="translate(148.0,192.0)"><g class="svg-box" role="plain"><rect x="0" y="0" width="124.0" height="32.0" rx="5.0" fill="#F5F7F9" stroke="#C3CAD2" stroke-width="1.2"/><text x="62.0" y="20.3" text-anchor="middle" font-family="Noto Sans JP, Hiragino Kaku Gothic ProN, sans-serif" font-size="12.0" font-weight="400" fill="#171B23">マイクロサービス</text></g></g></g></svg>